<svg width="60" height="60" viewBox="0 0 60 60" fill="none" xmlns="http://www.w3.org/2000/svg">
<path d="M27.9243 0.0518314C29.3818 -0.0355948 31.2186 -0.0167803 32.6711 0.141676C33.2698 0.205235 33.9265 0.435058 34.5134 0.503689C37.5129 0.854474 40.3705 1.73792 43.0856 3.05629C44.1434 3.56994 45.3308 4.08922 46.3062 4.78676C47.149 5.36402 47.9687 6.15138 48.7922 6.73207C50.7799 8.13363 52.3085 9.84401 53.6904 11.8303C54.1214 12.4497 54.736 12.9844 55.1536 13.6773C57.1756 17.0326 58.9374 20.9746 59.286 24.9092C59.3517 25.6488 59.8512 25.2697 59.8875 25.9901C60.0109 28.4393 59.9441 30.9053 59.9361 33.3576C59.9026 34.0243 59.9443 34.2419 59.5333 34.7789C59.0151 35.5307 59.2583 36.6735 58.9984 37.4982C58.3563 39.5359 57.6893 41.4469 56.7437 43.3615C56.2192 44.4236 55.7134 45.4351 55.0581 46.4342C54.7801 46.858 54.3105 47.2344 54.0161 47.6548C52.4693 50.0133 50.4171 52.0714 48.114 53.6946C47.4648 54.1515 46.8159 54.8039 46.1488 55.2228C41.8582 57.9165 37.1064 59.38 32.0881 59.8703C27.9768 60.3298 22.5987 59.1473 18.7467 57.7147C18.3328 57.5607 17.7249 57.1899 17.286 56.9952C16.852 56.7779 16.293 56.664 15.8795 56.4225C12.6678 54.5471 9.55259 52.1446 7.14378 49.294C6.80513 48.8931 6.53707 48.4302 6.21423 48.0203C5.77351 47.4606 5.29731 46.9464 4.89233 46.3612C3.02097 43.4756 1.65667 40.1473 0.871513 36.8025C0.719848 36.1564 0.678125 35.3404 0.570888 34.6798C0.498182 34.2319 0.217895 33.7511 0.168167 33.2856C-0.0419021 31.319 -0.0451775 29.338 0.102945 27.3672C0.143043 26.5114 0.424771 25.6646 0.572411 24.8349C1.04004 22.207 1.73252 19.6154 2.9172 17.218C3.38878 16.2388 4.0644 14.6084 4.74862 13.7525C6.82652 11.1536 8.79347 8.52668 11.5228 6.55865C12.3054 5.99441 13.0884 5.21028 13.8991 4.70259C17.3643 2.53272 21.2279 1.11581 25.2793 0.545927C26.1689 0.420789 27.0226 0.15102 27.9243 0.0518314ZM11.7453 31.7069C13.263 33.0946 15.1015 33.1648 16.8174 33.8359C20.4477 35.2557 22.0655 33.405 24.9584 31.5482C27.1565 30.1374 29.4424 28.7182 31.6372 27.1863L33.8116 25.6688C34.143 25.4354 34.2565 25.299 34.6411 25.0778C34.9699 24.8969 35.2636 24.6995 35.6449 24.8012C36.2882 25.6513 31.2804 29.9009 30.5727 30.6752C29.6095 31.7288 28.4246 32.7753 27.4577 33.8511C26.645 34.7063 25.9403 34.9969 25.6276 36.1917C26.1001 37.9381 27.2131 38.214 28.5676 39.1026L33.7539 42.4864C33.9098 42.5877 34.0801 42.7172 34.2224 42.8367C35.5291 43.935 36.8235 44.9363 38.6262 44.7986C39.745 44.1326 40.1332 42.9567 40.3668 41.7278C40.7803 39.5529 41.175 37.3794 41.5542 35.1965C41.6891 34.4209 41.7042 33.6196 41.8286 32.8479L43.0986 24.5228C43.3385 22.9251 43.9955 20.8421 43.5951 19.1638C43.5125 18.8178 42.2255 18.1606 41.825 18.2759C41.0734 18.3229 40.1342 18.5794 39.4401 18.8603C36.3901 20.0922 33.3216 21.2809 30.3476 22.6934C28.8827 23.3891 27.3638 23.8373 25.8786 24.4708C21.6485 26.275 17.4303 28.1517 13.1953 29.9431C12.2657 30.3363 11.8796 30.7005 11.7453 31.7069Z" fill="white"/>
</svg>
